<?xml version="1.0" standalone="no"?>
<!DOCTYPE svg PUBLIC "-//W3C//DTD SVG 1.0//EN" "http://www.w3.org/TR/2001/REC-SVG-20010904/DTD/svg10.dtd">
<svg xmlns="http://www.w3.org/2000/svg" xmlns:xlink="http://www.w3.org/1999/xlink" id="body_1" width="40" height="60">

<g transform="matrix(0.7547171 0 0 0.75 0 0)">
	<g transform="matrix(1.816935 0 0 1.807585 -23.45663 -9.582074)">
	</g>
    <path transform="matrix(1.816935 0 0 1.807585 -23.45663 -9.582074)"  d="M18.78958 15.57026L15.90106 15.57026L15.90106 7.439015C 15.80136 7.28054 15.96089 7.211387 16.02071 7.390032L16.02071 7.390032L18.78958 15.57026z" stroke="#FFFFFF" stroke-width="1" stroke-linecap="round" fill="none" />
	<g transform="matrix(1.816935 0 0 1.807585 -23.45663 -9.582074)">
	</g>
    <path transform="matrix(1.816935 0 0 1.807585 -23.45663 -9.582074)"  d="M36.20897 15.57026L39.10033 15.57026L39.10033 7.439015C 39.20003 7.28054 39.04051 7.211387 38.98069 7.390032L38.98069 7.390032L36.20897 15.57026z" stroke="#FFFFFF" stroke-width="1" stroke-linecap="round" fill="none" />
	<g transform="matrix(1.816935 0 0 1.807585 -23.45663 -9.582074)">
	</g>
    <path transform="matrix(1.816935 0 0 1.807585 -23.45663 -9.582074)"  d="M23.86869 12.57075C 24.00827 10.69785 25.6263 9.285977 27.5007 9.401232C 29.37225 9.285977 30.99027 10.69785 31.12985 12.57075" stroke="#FFFFFF" stroke-width="1" stroke-linecap="round" fill="none" stroke-opacity="0" />
	<g transform="matrix(1.816935 0 0 1.807585 0 0.1065826)">
	</g>
    <path transform="matrix(1.816935 0 0 1.807585 0 0.1065826)"  d="M18.10021 4.680898C 18.10021 3.101904 16.52777 1.819691 14.5907 1.819691C 12.65078 1.819691 11.08118 3.101904 11.08118 4.680898C 11.08118 6.259891 12.65078 7.539222 14.5907 7.539222C 16.52777 7.539222 18.10021 6.259891 18.10021 4.680898z" stroke="#FFFFFF" stroke-width="1" stroke-linecap="round" fill="none" stroke-opacity="0" />
	<g transform="matrix(1.816935 0 0 1.807585 -23.45663 -9.582074)">
	</g>
    <path transform="matrix(1.816935 0 0 1.807585 -23.45663 -9.582074)"  d="M41.51882 19.33045C 40.86079 14.89025 34.83878 11.42108 27.52064 11.42108C 20.19965 11.42108 14.16055 14.89025 13.51961 19.33045C 13.47688 19.48028 13.45409 19.633 13.45124 19.78859L13.45124 19.78859L13.45124 47.23082C 13.4313 48.16726 14.1634 48.951 15.1006 48.99998L15.1006 48.99998L39.90079 48.99998C 40.85224 48.97404 41.60713 48.18455 41.59003 47.23082L41.59003 47.23082L41.59003 19.80012C 41.58719 19.64164 41.5644 19.48317 41.51882 19.33045z" stroke="#FFFFFF" stroke-width="1" fill="none" />
	<g transform="matrix(1.816935 0 0 1.807585 0 0.1065826)">
	</g>
    <path transform="matrix(1.816935 0 0 1.807585 0 0.1065826)"  d="M4.7914 27.16139L24.37005 27.16139C 25.07652 27.16139 25.64909 27.7319 25.64909 28.44072L25.64909 28.44072L25.64909 40.32063C 25.64909 41.02657 25.07652 41.59996 24.37005 41.59996L24.37005 41.59996L4.7914 41.59996C 4.082091 41.59996 3.509516 41.02657 3.509516 40.32063L3.509516 40.32063L3.509516 28.44072C 3.509516 27.7319 4.082091 27.16139 4.7914 27.16139z" stroke="#FFFFFF" stroke-width="1" fill="none" />
	<g transform="matrix(1.816935 0 0 1.807585 0 0.1065826)">
	</g>
    <path transform="matrix(1.816935 0 0 1.807585 0 0.1065826)"  d="M3.509516 31.05989L25.66048 31.05989" stroke="#FFFFFF" stroke-width="1" fill="none" stroke-opacity="0" />
	<g transform="matrix(1.816935 0 0 1.807585 0 0.1065826)">
	</g>
    <path transform="matrix(1.816935 0 0 1.807585 0 0.1065826)"  d="M7.221284 31.05989L7.221284 33.31889" stroke="#FFFFFF" stroke-width="1" stroke-linecap="round" fill="none" stroke-opacity="0" />
	<g transform="matrix(1.816935 0 0 1.807585 0 0.1065826)">
	</g>
    <path transform="matrix(1.816935 0 0 1.807585 0 0.1065826)"  d="M9.540071 11.78925L19.62138 11.78925L19.62138 14.75995L9.540071 14.75995L9.540071 11.78925z" stroke="#FFFFFF" stroke-width="1" stroke-linecap="round" fill="none" stroke-opacity="0" />
	<g transform="matrix(-1.716911 0.5914745 -0.5945342 -1.708076 48.7302 13.50079)">
	</g>
    <path transform="matrix(-1.716911 0.5914745 -0.5945342 -1.708076 48.7302 13.50079)"  d="M16.80871 6.470491L20.80974 6.468567L20.81098 12.75043C 20.81082 12.88149 20.70365 12.99074 20.57106 12.99057L20.57106 12.99057L16.80909 12.9899L16.80871 6.470491z" stroke="#FFFFFF" stroke-width="1" stroke-linecap="round" fill="none" stroke-opacity="0" />
	<g transform="matrix(1.716911 0.5914745 -0.5945342 1.708076 -14.06307 -30.04395)">
	</g>
    <path transform="matrix(1.716911 0.5914745 -0.5945342 1.708076 -14.06307 -30.04395)"  d="M34.229 6.471361L37.93955 6.470196C 38.07213 6.470024 38.17836 6.576554 38.17947 6.710337L38.17947 6.710337L38.18105 13.00037L34.18097 13.00117L34.18027 6.469939L34.229 6.471361z" stroke="#FFFFFF" stroke-width="1" stroke-linecap="round" fill="none" stroke-opacity="0" />
	<g transform="matrix(1.325 0 0 1.333333 0 -2.543132E-06)">
	</g>
    <path transform="matrix(1.325 0 0 1.333333 0 -2.543132E-06)"  d="M29.60547 51.10938C 29.39063 51.44531 29.13281 51.75781 28.83594 52.03125C 28.71484 52.13281 28.57031 52.21484 28.41406 52.26172C 28.02734 52.38281 27.60547 52.24609 27.37109 51.92188C 27.31641 51.86719 27.27344 51.80078 27.24609 51.73047C 27.05078 51.30859 26.99219 50.83203 27.08203 50.375C 27.11719 49.86719 27.33203 49.39063 27.6875 49.01953C 27.8125 48.90625 27.96875 48.83203 28.13672 48.80469C 28.32422 48.73438 28.52734 48.73438 28.71484 48.80469L28.71484 48.80469L28.85156 48.89844C 28.92578 48.97656 28.96094 49.08984 28.94922 49.19531C 28.95313 49.23438 28.95313 49.26953 28.94922 49.30469C 28.86719 49.48047 28.72656 49.46875 28.71484 49.50781C 28.71094 49.58984 28.73828 49.66797 28.79688 49.72656C 28.83594 49.76953 28.89063 49.80078 28.94922 49.82031C 29.00391 49.83984 29.06641 49.83984 29.125 49.82031C 29.1875 49.80078 29.24219 49.76953 29.28906 49.72656C 29.33984 49.67188 29.37891 49.60547 29.39844 49.53516C 29.41797 49.44531 29.41797 49.35547 29.39844 49.26563C 29.38672 49.10156 29.33594 48.94141 29.25 48.80469C 29.17188 48.68359 29.07031 48.58203 28.94922 48.50391C 28.82422 48.43359 28.69141 48.39063 28.55078 48.37109C 28.41406 48.34766 28.27344 48.34766 28.13672 48.37109C 27.95313 48.40234 27.77734 48.46484 27.61719 48.55859C 27.46094 48.64844 27.31641 48.75781 27.19141 48.88281C 27.06641 49.01953 26.96094 49.17188 26.875 49.33203C 26.78516 49.49609 26.71484 49.66797 26.65625 49.84766C 26.59766 50.02734 26.55859 50.21484 26.53516 50.40234C 26.51953 50.58984 26.51953 50.77344 26.53516 50.95703C 26.54297 51.13672 26.57031 51.31641 26.61719 51.48828C 26.65625 51.64844 26.71484 51.80469 26.79297 51.94922C 26.87109 52.08594 26.96875 52.20703 27.08203 52.31641C 27.19141 52.41797 27.32422 52.49609 27.46484 52.54688C 27.62109 52.60156 27.78125 52.62891 27.94531 52.625C 28.10938 52.625 28.27344 52.59766 28.42578 52.54688C 28.58594 52.49219 28.73828 52.42188 28.87891 52.32813C 29.02734 52.23828 29.16016 52.12891 29.27734 52.00391C 29.39453 51.87109 29.49609 51.72656 29.57813 51.57031C 29.64844 51.45703 29.70313 51.33984 29.74219 51.21484C 29.62109 51.23047 29.63281 51.10938 29.60547 51.10938z" stroke="none" fill="none" />
	<g transform="matrix(1.816935 0 0 1.807585 -23.45663 -9.582074)">
	</g>
    <path transform="matrix(1.816935 0 0 1.807585 -23.45663 -9.582074)"  d="M36.28019 44.9286L30.38066 44.9286L30.38066 40.32992L36.28019 40.32992L36.28019 44.9286zM30.44903 44.85944L36.20897 44.85944L36.20897 40.39043L30.44903 40.39043z" stroke="#FFFFFF" stroke-width="0.25" fill="none" />
</g>
</svg>